<svg width="1440" height="425" viewBox="0 0 1440 425" fill="none" xmlns="http://www.w3.org/2000/svg">
<path fill-rule="evenodd" clip-rule="evenodd" d="M-29 231.747L12.1869 218.014C52.3932 205.998 133.786 180.248 216.16 231.747C297.553 283.247 378.947 410.279 460.34 424.012C542.714 436.028 624.107 334.746 705.5 321.013C786.893 308.996 869.267 386.246 950.66 386.246C1032.05 386.246 1113.45 308.996 1194.84 269.514C1277.21 231.747 1358.61 231.747 1398.81 231.747H1440V0H1398.81C1358.61 0 1277.21 0 1194.84 0C1113.45 0 1032.05 0 950.66 0C869.267 0 786.893 0 705.5 0C624.107 0 542.714 0 460.34 0C378.947 0 297.553 0 216.16 0C133.786 0 52.3932 0 12.1869 0H-29V231.747Z" fill="url(#paint0_linear_11_49)"/>
<path opacity="0.3" fill-rule="evenodd" clip-rule="evenodd" d="M-29 137.958L12.1869 129.783C52.3932 122.629 133.786 107.301 216.16 137.958C297.553 168.615 378.947 244.236 460.34 252.412C542.714 259.565 624.107 199.272 705.5 191.097C786.893 183.944 869.267 229.93 950.66 229.93C1032.05 229.93 1113.45 183.944 1194.84 160.44C1277.21 137.958 1358.61 137.958 1398.81 137.958H1440V0H1398.81C1358.61 0 1277.21 0 1194.84 0C1113.45 0 1032.05 0 950.66 0C869.267 0 786.893 0 705.5 0C624.107 0 542.714 0 460.34 0C378.947 0 297.553 0 216.16 0C133.786 0 52.3932 0 12.1869 0H-29V137.958Z" fill="url(#paint1_linear_11_49)" fill-opacity="0.87"/>
<defs>
<linearGradient id="paint0_linear_11_49" x1="705.5" y1="0" x2="705.5" y2="425" gradientUnits="userSpaceOnUse">
<stop stop-color="#0099FF"/>
<stop offset="1" stop-color="#0099FF" stop-opacity="0"/>
</linearGradient>
<linearGradient id="paint1_linear_11_49" x1="705.5" y1="0" x2="705.158" y2="196.915" gradientUnits="userSpaceOnUse">
<stop stop-color="#516FBC"/>
<stop offset="1" stop-color="#78B1C4" stop-opacity="0.58"/>
</linearGradient>
</defs>
</svg>
